<!DOCTYPE svg PUBLIC "-//W3C//DTD SVG 20010904//EN" "http://www.w3.org/TR/2001/REC-SVG-20010904/DTD/svg10.dtd">
<svg version="1.0" xmlns="http://www.w3.org/2000/svg" width="80px" height="80px" viewBox="0 0 800 800" preserveAspectRatio="xMidYMid meet">
<g id="layer101" fill="#4b8bc9" stroke="none">
 <path d="M260 772 c0 -4 25 -82 55 -172 30 -90 55 -168 55 -172 0 -4 -43 -8 -95 -8 -52 0 -95 -3 -95 -7 0 -5 30 -95 66 -200 l67 -193 133 0 c74 0 134 3 134 6 0 3 -34 71 -76 150 l-75 144 105 0 c58 0 106 2 106 5 0 7 -370 455 -376 455 -2 0 -4 -4 -4 -8z"/>
 </g>
<g id="layer102" fill="#dbedfc" stroke="none">
 <path d="M320 669 c0 -3 20 -64 44 -137 l45 -132 -101 0 c-76 0 -99 -3 -96 -12 3 -7 31 -88 63 -180 l59 -168 103 0 c57 0 103 3 103 6 0 3 -33 67 -72 142 -40 75 -74 140 -76 144 -2 4 42 8 97 8 56 0 101 2 101 5 0 3 -55 72 -122 153 -133 161 -148 179 -148 171z"/>
 </g>

</svg>